# xmcd
#
# Track frame offsets:
#	150
#	13929
#	27495
#	41028
#	54495
#	67791
#	80411
#	94247
#	107771
#	121442
#	134473
#	148498
#	162697
#	177693
#	191507
#	204517
#	217495
#	230244
#	245240
#	259239
#	274687
#	289618
#	305648
#	318852
#	335109
#
# Disc length: 4675 seconds
#
# Revision: 3
# Processed by: cddbd v1.5.2PL0 Copyright (c) Steve Scherf et al.
# Submitted via: EasyCDDAExtractor 11.1.0.1
#
DISCID=9e124119
DTITLE=Big Bill Broonzy - All The Classic Sides 1928-1937 - Disc 2
DYEAR=2003
DGENRE=Blues
TTITLE0=Worried In Mind Blues (1932)
TTITLE1=Too Too Train Blues (1932)
TTITLE2=Mistreatin' Mamma (1932)
TTITLE3=Big Bill Blues (1932)
TTITLE4=Brown Skin Shuffle (1932)
TTITLE5=Stove Pipe Stomp (1932)
TTITLE6=Beedle Um Bum (1932)
TTITLE7=Selling That Stuff (1932)
TTITLE8=Mr Conductor Man (1932)
TTITLE9=Too Too Train Blues (alternate take) (1932)
TTITLE10=Worrying You Off My Mind Part 1 (1932)
TTITLE11=Worrying You Off My Mind Part 2 (1932)
TTITLE12=Shelby County Blues (1932)
TTITLE13=Mistreatin' Mama Blues (alternate take) (1932)
TTITLE14=Bull Cow Blues (1932)
TTITLE15=How You Want It Done (1932)
TTITLE16=Long Tall Mama (1932)
TTITLE17=M And O Blues (1932)
TTITLE18=Rukus Juice Blues (1932)
TTITLE19=Friendless Blues (1934)
TTITLE20=Milk Cow Blues (1934)
TTITLE21=Hungry Man Blues (1934)
TTITLE22=I'll Be Back Home Again (1934)
TTITLE23=Bull Cow Blues, Part 2 (1934)
TTITLE24=Serve It To Me Right (1934)
EXTD=
EXTT0=
EXTT1=
EXTT2=
EXTT3=
EXTT4=
EXTT5=
EXTT6=
EXTT7=
EXTT8=
EXTT9=
EXTT10=
EXTT11=
EXTT12=
EXTT13=
EXTT14=
EXTT15=
EXTT16=
EXTT17=
EXTT18=
EXTT19=
EXTT20=
EXTT21=
EXTT22=
EXTT23=
EXTT24=
PLAYORDER=
